<mxfile host="app.diagrams.net" modified="2023-04-26T00:50:09.211Z" agent="Mozilla/5.0 (Windows NT 10.0; Win64; x64) AppleWebKit/537.36 (KHTML, like Gecko) Chrome/112.0.0.0 Safari/537.36" etag="P1sCmoYwPp_ddx3qtbsY" version="21.2.1" type="device">
  <diagram name="페이지-1" id="mfFOSdsRfp9rqxDiNm_j">
    <mxGraphModel dx="1434" dy="756" grid="1" gridSize="10" guides="1" tooltips="1" connect="1" arrows="1" fold="1" page="1" pageScale="1" pageWidth="827" pageHeight="1169" math="0" shadow="0">
      <root>
        <mxCell id="0" />
        <mxCell id="1" parent="0" />
        <mxCell id="29eYO1VU-ebe_u3iWpiD-1" value="서버1" style="whiteSpace=wrap;html=1;aspect=fixed;" vertex="1" parent="1">
          <mxGeometry x="220" y="160" width="80" height="80" as="geometry" />
        </mxCell>
        <mxCell id="29eYO1VU-ebe_u3iWpiD-2" value="서버2" style="whiteSpace=wrap;html=1;aspect=fixed;" vertex="1" parent="1">
          <mxGeometry x="360" y="160" width="80" height="80" as="geometry" />
        </mxCell>
        <mxCell id="29eYO1VU-ebe_u3iWpiD-3" value="서버3" style="whiteSpace=wrap;html=1;aspect=fixed;" vertex="1" parent="1">
          <mxGeometry x="510" y="160" width="80" height="80" as="geometry" />
        </mxCell>
        <mxCell id="29eYO1VU-ebe_u3iWpiD-4" value="Actor" style="shape=umlActor;verticalLabelPosition=bottom;verticalAlign=top;html=1;outlineConnect=0;" vertex="1" parent="1">
          <mxGeometry x="80" y="310" width="30" height="60" as="geometry" />
        </mxCell>
        <mxCell id="29eYO1VU-ebe_u3iWpiD-5" value="Actor" style="shape=umlActor;verticalLabelPosition=bottom;verticalAlign=top;html=1;outlineConnect=0;" vertex="1" parent="1">
          <mxGeometry x="240" y="300" width="30" height="60" as="geometry" />
        </mxCell>
        <mxCell id="29eYO1VU-ebe_u3iWpiD-6" value="" style="endArrow=classic;html=1;rounded=0;" edge="1" parent="1">
          <mxGeometry width="50" height="50" relative="1" as="geometry">
            <mxPoint x="130" y="280" as="sourcePoint" />
            <mxPoint x="180" y="230" as="targetPoint" />
          </mxGeometry>
        </mxCell>
        <mxCell id="29eYO1VU-ebe_u3iWpiD-7" value="" style="endArrow=classic;html=1;rounded=0;" edge="1" parent="1">
          <mxGeometry width="50" height="50" relative="1" as="geometry">
            <mxPoint x="320" y="300" as="sourcePoint" />
            <mxPoint x="355" y="265" as="targetPoint" />
          </mxGeometry>
        </mxCell>
        <mxCell id="29eYO1VU-ebe_u3iWpiD-9" value="Load 밸런싱" style="text;html=1;strokeColor=none;fillColor=none;align=center;verticalAlign=middle;whiteSpace=wrap;rounded=0;" vertex="1" parent="1">
          <mxGeometry x="349" y="120" width="130" height="30" as="geometry" />
        </mxCell>
        <mxCell id="29eYO1VU-ebe_u3iWpiD-10" value="파일 저장 전용 컴퓨터" style="whiteSpace=wrap;html=1;aspect=fixed;" vertex="1" parent="1">
          <mxGeometry x="280" y="30" width="80" height="80" as="geometry" />
        </mxCell>
        <mxCell id="29eYO1VU-ebe_u3iWpiD-11" value="각 컴퓨터의 session도 생각 해야됨" style="text;html=1;strokeColor=none;fillColor=none;align=center;verticalAlign=middle;whiteSpace=wrap;rounded=0;" vertex="1" parent="1">
          <mxGeometry x="360" y="540" width="130" height="30" as="geometry" />
        </mxCell>
        <mxCell id="29eYO1VU-ebe_u3iWpiD-12" value="session DB를 만들어서 session만 저장" style="rounded=0;whiteSpace=wrap;html=1;" vertex="1" parent="1">
          <mxGeometry x="80" y="630" width="120" height="60" as="geometry" />
        </mxCell>
        <mxCell id="29eYO1VU-ebe_u3iWpiD-13" value="Session DB" style="text;html=1;strokeColor=none;fillColor=none;align=center;verticalAlign=middle;whiteSpace=wrap;rounded=0;" vertex="1" parent="1">
          <mxGeometry x="90" y="600" width="100" height="30" as="geometry" />
        </mxCell>
        <mxCell id="29eYO1VU-ebe_u3iWpiD-14" value="세션을 램에 저장해서 사용해서 어떤 컴퓨터는 RAM이 783GB임&lt;br&gt;&lt;br&gt;일반DB는 HDD에 저장" style="text;html=1;strokeColor=none;fillColor=none;align=center;verticalAlign=middle;whiteSpace=wrap;rounded=0;" vertex="1" parent="1">
          <mxGeometry x="210" y="640" width="140" height="30" as="geometry" />
        </mxCell>
        <mxCell id="29eYO1VU-ebe_u3iWpiD-15" value="사용자에게 사용자 정보가 저장된 TOKEN을 발급해서 쿠키에 저장" style="text;html=1;strokeColor=none;fillColor=none;align=center;verticalAlign=middle;whiteSpace=wrap;rounded=0;" vertex="1" parent="1">
          <mxGeometry x="460" y="630" width="150" height="30" as="geometry" />
        </mxCell>
      </root>
    </mxGraphModel>
  </diagram>
</mxfile>
